<svg id="united-states" xmlns="http://www.w3.org/2000/svg" width="28" height="28" viewBox="0 0 28 28">
  <circle id="Ellipse_301" data-name="Ellipse 301" cx="14" cy="14" r="14" fill="#f0f0f0"/>
  <g id="Group_5940" data-name="Group 5940" transform="translate(0.475 2.998)">
    <path id="Path_4799" data-name="Path 4799" d="M244.87,192.815h14.393a13.81,13.81,0,0,0-.475-3.6H244.87Z" transform="translate(-231.738 -181.879)" fill="#d80027"/>
    <path id="Path_4800" data-name="Path 4800" d="M244.87,59.25h12.368a13.865,13.865,0,0,0-3.183-3.6H244.87Z" transform="translate(-231.738 -55.652)" fill="#d80027"/>
    <path id="Path_4801" data-name="Path 4801" d="M105.437,459.347a14.279,14.279,0,0,0,8.793-3H96.644A14.279,14.279,0,0,0,105.437,459.347Z" transform="translate(-91.912 -434.345)" fill="#d80027"/>
    <path id="Path_4802" data-name="Path 4802" d="M10.392,326.38H34.3a13.6,13.6,0,0,0,1.573-3.6H8.819A13.6,13.6,0,0,0,10.392,326.38Z" transform="translate(-8.819 -308.105)" fill="#d80027"/>
  </g>
  <path id="Path_4803" data-name="Path 4803" d="M6.389,2.154H7.646L6.477,3l.447,1.374L5.754,3.528l-1.169.849L4.971,3.19A13.869,13.869,0,0,0,2.3,6.172h.4l-.744.541Q1.78,7,1.621,7.3L1.976,8.4l-.663-.482q-.247.524-.451,1.071l.392,1.205H2.7l-1.169.849.447,1.374L.807,11.564l-.7.509A13.926,13.926,0,0,0,0,13.793H13.793V0A13.728,13.728,0,0,0,6.389,2.154Zm.534,10.26-1.169-.849-1.169.849.447-1.374L3.863,10.19H5.308l.447-1.374L6.2,10.19H7.646l-1.169.849ZM6.477,7.021,6.924,8.4,5.754,7.546,4.585,8.4l.447-1.374L3.863,6.172H5.308L5.754,4.8,6.2,6.172H7.646Zm5.394,5.392L10.7,11.564l-1.169.849.447-1.374L8.81,10.19h1.445L10.7,8.816l.447,1.374h1.445l-1.169.849Zm-.447-5.392L11.871,8.4,10.7,7.546,9.533,8.4l.447-1.374L8.81,6.172h1.445L10.7,4.8l.447,1.374h1.445Zm0-4.018.447,1.374L10.7,3.528l-1.169.849L9.979,3,8.81,2.154h1.445L10.7.78l.447,1.374h1.445Z" fill="#0052b4"/>
</svg>
