<?xml version="1.0" encoding="utf-8"?>
<!-- Generator: Adobe Illustrator 25.4.2, SVG Export Plug-In . SVG Version: 6.00 Build 0)  -->
<svg version="1.1" id="Capa_1" xmlns="http://www.w3.org/2000/svg" xmlns:xlink="http://www.w3.org/1999/xlink" x="0px" y="0px"
	 viewBox="0 0 473.7 473.7" style="enable-background:new 0 0 473.7 473.7;" xml:space="preserve">
<style type="text/css">
	.st0{fill:#E61E25;}
	.st1{fill:#E4E4E4;}
	.st2{fill:#3757A6;}
	.st3{fill:#EF4F4E;}
	.st4{fill:#F3F4F5;}
</style>
<path class="st0" d="M316.5,13.7l-27.6,76.6c25.5,84.2,25.5,209.2,0,293.4l27.6,76.6c92-32.5,157.9-120.2,157.9-223.3
	C474.3,133.9,408.4,46.2,316.5,13.7z"/>
<g>
	<path class="st1" d="M316.5,90.3V13.7c-24.7-8.7-51.3-13.5-79-13.5C274,0.2,223.4,123.9,316.5,90.3z"/>
	<path class="st1" d="M237.5,473.8c27.7,0,54.3-4.8,79-13.5v-76.6C224.3,374.5,237.5,473.8,237.5,473.8z"/>
</g>
<path class="st2" d="M0.7,237c0,103.5,66.4,191.4,158.8,223.6V13.4C67,45.6,0.7,133.6,0.7,237z"/>
<path class="st3" d="M316.5,90.3v293.4C342,299.5,342,174.5,316.5,90.3z"/>
<path class="st4" d="M316.5,383.7V90.3c-16.1-53.2-42.4-90.2-79-90.2c-27.4,0-53.6,4.7-78,13.2v447.2c24.4,8.5,50.7,13.2,78,13.2
	C274,473.8,300.3,436.9,316.5,383.7z"/>
</svg>
