<svg xmlns="http://www.w3.org/2000/svg" xmlns:xlink="http://www.w3.org/1999/xlink" width="40" height="40" viewBox="0 0 40 40">
  <defs>
    <linearGradient id="linear-gradient" x1="0.159" y1="0.134" x2="0.841" y2="0.866" gradientUnits="objectBoundingBox">
      <stop offset="0" stop-color="#fd5"/>
      <stop offset="0.5" stop-color="#ff543e"/>
      <stop offset="1" stop-color="#c837ab"/>
    </linearGradient>
  </defs>
  <g id="instagram-sketched_1_" data-name="instagram-sketched (1)" transform="translate(0 0)">
    <circle id="Ellipse_433" data-name="Ellipse 433" cx="20" cy="20" r="20" transform="translate(0 0)" fill="url(#linear-gradient)"/>
    <path id="Path_6354" data-name="Path 6354" d="M93.744,79.048c-5.987,0-11.676-.529-13.851,5.043-.9,2.3-.769,5.291-.769,9.574,0,3.753-.124,7.284.769,9.574,2.166,5.581,7.9,5.043,13.842,5.043,5.739,0,11.651.6,13.842-5.043.9-2.323.769-5.266.769-9.574,0-5.713.314-9.392-2.456-12.162-2.795-2.8-6.59-2.455-12.147-2.455Zm-1.307,2.637c12.495-.017,14.082-1.405,13.206,17.883-.314,6.821-5.507,6.077-11.891,6.077-11.643,0-11.982-.331-11.982-11.98,0-11.79.918-11.971,10.667-11.98Zm9.1,2.422a1.753,1.753,0,1,0,1.753,1.753A1.754,1.754,0,0,0,101.542,84.108Zm-7.8,2.05a7.507,7.507,0,1,0,7.5,7.507,7.507,7.507,0,0,0-7.5-7.507Zm0,2.637c6.442,0,6.45,9.739,0,9.739S87.294,88.8,93.744,88.8Z" transform="translate(-73.694 -73.616)" fill="#fff"/>
  </g>
</svg>
