<svg xmlns="http://www.w3.org/2000/svg" width="148.008" height="16.414" viewBox="0 0 148.008 16.414">
  <g id="LOGO" transform="translate(-241.59 -116.875)">
    <path id="Path_4876" data-name="Path 4876" d="M443.263,118.549l-4.254,15.871h-4.916l1.7-6.349h-5.466l-1.7,6.349H423.71l3.2-11.948a4.936,4.936,0,0,1,2.138-3.2,7.953,7.953,0,0,1,3.835-.728Zm-106.933,2.292a7.111,7.111,0,0,1-.287,1.808l-2.006,7.473a5.759,5.759,0,0,1-2.05,3.483,7.512,7.512,0,0,1-4.012.816h-10.4l4.255-15.871h10.4a8.365,8.365,0,0,1,2.667.308,1.948,1.948,0,0,1,1.433,1.984Zm-5.2,1.808h-5.489l-2.006,7.473h5.489l2.006-7.473Zm22.308-1.808A1.948,1.948,0,0,0,352,118.857a8.363,8.363,0,0,0-2.667-.308h-10.4l-4.255,15.871h10.4a7.511,7.511,0,0,0,4.012-.816,5.756,5.756,0,0,0,2.05-3.483l2.006-7.473a7.1,7.1,0,0,0,.287-1.808Zm-5.2,1.808-2.006,7.473h-5.489l2.006-7.473Zm21.933-4.1-1.1,4.1h-9.391l-.551,2.072h6.415q3,0,3,2.16a20.976,20.976,0,0,1-.727,3.241A6.45,6.45,0,0,1,366,133.484a5.723,5.723,0,0,1-3.637.937H351.672l1.146-4.3h10.14l.551-2.05h-6.415a4.126,4.126,0,0,1-2.579-.573,1.657,1.657,0,0,1-.485-1.323,23.681,23.681,0,0,1,.794-3.527,5.763,5.763,0,0,1,1.808-3.2,5.909,5.909,0,0,1,3.593-.9Zm16.511,2.226a1.885,1.885,0,0,0-1.146-1.9,6.222,6.222,0,0,0-2.359-.331H372.459L368.2,134.42h4.916L374.8,128.2h6.349a5.147,5.147,0,0,0,2.557-.573,4.512,4.512,0,0,0,2.116-2.91l.529-1.94a8.345,8.345,0,0,0,.331-2.006Zm-5.224,1.874-.573,2.182H375.7l.573-2.182Zm20.875-4.1-1.1,4.1h-8.465l-.551,2.072h7.716l-.9,3.35h-7.715l-.552,2.05h8.465l-1.147,4.3H384.627l4.255-15.871Zm16.114,2.292a1.948,1.948,0,0,0-1.433-1.984,8.363,8.363,0,0,0-2.667-.308h-10.4l-4.255,15.871h10.4a7.51,7.51,0,0,0,4.012-.816,5.756,5.756,0,0,0,2.05-3.483l2.006-7.473a7.1,7.1,0,0,0,.287-1.808Zm-5.2,1.808-2.006,7.473h-5.489l2.006-7.473Zm24.05-.177h-5.467l-.639,2.425h5.466Z" transform="translate(-53.665 -1.182)" fill="#fff" fill-rule="evenodd"/>
    <path id="Path_4877" data-name="Path 4877" d="M262.406,130.783a8.5,8.5,0,0,0,.709-1.772l2.212-7.727q.753-2.59-.195-3.545-.84-.864-3.612-.864h-5.636a10.333,10.333,0,0,0-2.961.341,4.333,4.333,0,0,0-2.59,2.091,9.441,9.441,0,0,0-.777,1.977l-2.211,7.723h3.325l-9.079,4.231h15.252a10.312,10.312,0,0,0,2.961-.341,4.421,4.421,0,0,0,2.6-2.113Zm-4.359-1.772h-5.636l2.2-7.7h7.545l-2.282,1.309Z" transform="translate(0 0)" fill="#00b1ff" fill-rule="evenodd"/>
    <g id="Group_6183" data-name="Group 6183" transform="translate(363.119 117.199)">
      <path id="Path_4878" data-name="Path 4878" d="M655.376,141.655H660.3l3.742-12.935-7.4,8.661Z" transform="translate(-655.376 -125.565)" fill="#fff"/>
      <path id="Path_4879" data-name="Path 4879" d="M662.386,126.329l7.136-8.35H664.78Z" transform="translate(-660.327 -117.978)" fill="#00b1ff"/>
    </g>
  </g>
</svg>
