<svg xmlns="http://www.w3.org/2000/svg" xmlns:xlink="http://www.w3.org/1999/xlink" width="27.141" height="14.783" viewBox="0 0 27.141 14.783"><defs><linearGradient id="a" x1="1" x2="0" y2="1" gradientUnits="objectBoundingBox"><stop offset="0" stop-color="#28efff"/><stop offset="1" stop-color="#00b1ff"/></linearGradient></defs><g transform="translate(-0.272 -74.667)"><path d="M6.035,74.667H23.957c1.681,0,3.5.989,3.043,3.043l-2,8.7c-.5,1.72-1.363,3.044-3.043,3.044H3.043C1.363,89.45-.455,88.1,0,86.406l2-8.7A3.937,3.937,0,0,1,6.035,74.667Z" transform="translate(0.343)" fill="url(#a)"/><path d="M754.117,483.882l-1.052,5.264h-1l-1.963-3.294-.662,3.294h-1.2l1.053-5.264H750.3l1.963,3.3.654-3.3Z" transform="translate(-743.893 -404.456)" fill="#fff"/><path d="M760,484.86,759.775,486h2.444l-.188.947H759.58l-.241,1.218h2.872l-.2.978h-4.076l1.053-5.264h3.978l-.2.978Z" transform="translate(-747.51 -404.456)" fill="#fff"/><path d="M775.234,483.882l-2.782,5.264h-1.3l-.459-3.541-1.9,3.541h-1.309l-.669-5.264h1.2l.467,3.7,1.978-3.7h1.128l.451,3.73,1.985-3.73Z" transform="translate(-750.821 -404.456)" fill="#fff"/></g></svg>