<svg id="Group_10908" data-name="Group 10908" xmlns="http://www.w3.org/2000/svg" width="122.18" height="122.179" viewBox="0 0 122.18 122.179">
  <g id="Group_7578" data-name="Group 7578">
    <g id="Group_7012" data-name="Group 7012">
      <g id="Group_6989" data-name="Group 6989">
        <g id="Group_8081" data-name="Group 8081">
          <g id="Group_8077" data-name="Group 8077">
            <g id="Group_8073" data-name="Group 8073">
              <g id="Rectangle_1893" data-name="Rectangle 1893" fill="#2bd299">
                <path d="M30.313,27.025A36.519,36.519,0,0,1,44.2,18.856a41.03,41.03,0,0,1,15.9-1.77,46.92,46.92,0,0,1,16.057,4.308,51.673,51.673,0,0,1,24.628,24.628,46.92,46.92,0,0,1,4.308,16.057,41.029,41.029,0,0,1-1.77,15.9,36.306,36.306,0,0,1-21.661,22.913,40.385,40.385,0,0,1-16.193,2.554,46.457,46.457,0,0,1-16.842-4.016A51.626,51.626,0,0,1,22.747,73.552,46.457,46.457,0,0,1,18.731,56.71a40.385,40.385,0,0,1,2.554-16.193A36.218,36.218,0,0,1,30.313,27.025Z" stroke="none"/>
                <path d="M 91.61849212646484 88.33039093017578 C 92.45552062988281 87.44662475585938 93.23722839355469 86.52338409423828 93.96269989013672 85.56252288818359 C 94.68702697753906 84.60320281982422 95.35528564453125 83.60634613037109 95.96658325195313 82.57383728027344 C 96.57693481445313 81.54293060302734 97.13053131103516 80.47644805908203 97.62642669677734 79.37624359130859 C 98.12158203125 78.27769470214844 98.55924224853516 77.14545440673828 98.93849182128906 75.98139190673828 C 99.30447387695313 74.85806274414063 99.61262512207031 73.71680450439453 99.86288452148438 72.55967712402344 C 100.1128005981445 71.40409851074219 100.3049774169922 70.23258972167969 100.4392852783203 69.04718780517578 C 100.5734329223633 67.86328125 100.6498870849609 66.66542053222656 100.6685333251953 65.45563507080078 C 100.6871490478516 64.24726104736328 100.6480865478516 63.02689361572266 100.5511932373047 61.79650115966797 C 100.4543991088867 60.56744766235352 100.3011245727539 59.34390640258789 100.0920104980469 58.12788009643555 C 99.88310241699219 56.91301345825195 99.61844635009766 55.70550537109375 99.29861450195313 54.50730514526367 C 98.97907257080078 53.31011962890625 98.60442352294922 52.12208557128906 98.17525482177734 50.94518661499023 C 97.74641418457031 49.76913070678711 97.26309204101563 48.60404205322266 96.72584533691406 47.45188140869141 C 96.17024230957031 46.2603645324707 95.5625 45.09540176391602 94.90393829345703 43.9587287902832 C 94.24569702148438 42.82259368896484 93.53654479980469 41.71453857421875 92.77778625488281 40.63632202148438 C 92.01927947998047 39.55843734741211 91.2110595703125 38.51021194458008 90.35440826416016 37.4933967590332 C 89.49788665771484 36.47673416137695 88.59280395507813 35.49131011962891 87.640380859375 34.53889846801758 C 86.68797302246094 33.58648681640625 85.70255279541016 32.6814079284668 84.68589782714844 31.82488632202148 C 83.66908264160156 30.96822929382324 82.62085723876953 30.16002082824707 81.54296875 29.40150451660156 C 80.46475219726563 28.64275360107422 79.35671234130859 27.9336109161377 78.22055816650391 27.27534866333008 C 77.08389282226563 26.61678504943848 75.91892242431641 26.00905227661133 74.72740936279297 25.45344734191895 C 73.57524108886719 24.91620063781738 72.41014862060547 24.4328727722168 71.23410034179688 24.00402450561523 C 70.05720520019531 23.57487106323242 68.86918640136719 23.20022964477539 67.67198944091797 22.88068008422852 C 66.47380065917969 22.56086349487305 65.26628112792969 22.29619407653809 64.05142211914063 22.0872859954834 C 62.83538818359375 21.87817192077637 61.61185455322266 21.72490310668945 60.38279724121094 21.62810897827148 C 59.15240859985352 21.53121757507324 57.93202590942383 21.49214363098145 56.72365570068359 21.51075744628906 C 55.51386260986328 21.52939414978027 54.31600570678711 21.60585021972656 53.13210296630859 21.74000549316406 C 51.94670867919922 21.87432289123535 50.77520370483398 22.06649780273438 49.6196174621582 22.3164119720459 C 48.46248245239258 22.56665992736816 47.32122802734375 22.87482070922852 46.19790267944336 23.24079513549805 C 45.0338249206543 23.62004852294922 43.90160751342773 24.05771446228027 42.80305099487305 24.55286598205566 C 41.70284271240234 25.04876708984375 40.63636016845703 25.60235404968262 39.6054573059082 26.21270942687988 C 38.57295227050781 26.82401084899902 37.57610321044922 27.49227905273438 36.61676406860352 28.21659088134766 C 35.65590667724609 28.94205856323242 34.7326545715332 29.72377014160156 33.84890365600586 30.56080627441406 C 32.96372222900391 31.39919471740723 32.13162231445313 32.28033828735352 31.35391426086426 33.20256423950195 C 30.57496070861816 34.12626647949219 29.8506031036377 35.09117126464844 29.1821460723877 36.09558486938477 C 28.51263618469238 37.10157012939453 27.89923286437988 38.14716339111328 27.3432559967041 39.23065948486328 C 26.78642082214355 40.31581878662109 26.28721046447754 41.43894577026367 25.84694671630859 42.59833145141602 C 25.42086219787598 43.72039794921875 25.05406951904297 44.86454010009766 24.74704933166504 46.02865982055664 C 24.43960762023926 47.19437408447266 24.19211959838867 48.38002777099609 24.00504875183105 49.5834846496582 C 23.81773567199707 50.78849411010742 23.69101142883301 52.01126098632813 23.62532615661621 53.2496223449707 C 23.5595588684082 54.48948669433594 23.55498313903809 55.74488067626953 23.61203384399414 57.01362228393555 C 23.66915512084961 58.28378677368164 23.78730964660645 59.551025390625 23.96606063842773 60.81303787231445 C 24.14498710632324 62.0763053894043 24.38460731506348 63.33418655395508 24.68446159362793 64.58436584472656 C 24.98457717895508 65.83562469482422 25.34499549865723 67.07901763916016 25.76522445678711 68.31221771240234 C 26.1857738494873 69.54634094238281 26.66617012023926 70.77009582519531 27.20590019226074 71.98114013671875 C 27.76475715637207 73.23511505126953 28.38152885437012 74.46169281005859 29.05481147766113 75.65872192382813 C 29.72842216491699 76.85633087158203 30.45849609375 78.02419281005859 31.24360847473145 79.16014862060547 C 32.02897262573242 80.29646301269531 32.86928176879883 81.40068054199219 33.76308822631836 82.47065734863281 C 34.65703582763672 83.54080963134766 35.60435104370117 84.57655334472656 36.60354614257813 85.57574462890625 C 37.60274124145508 86.57494354248047 38.63847732543945 87.52224731445313 39.70863723754883 88.41620635986328 C 40.77861022949219 89.31000518798828 41.88283157348633 90.15032958984375 43.01914978027344 90.93568420410156 C 44.15510177612305 91.72079467773438 45.32295989990234 92.45087432861328 46.52056884765625 93.12447357177734 C 47.71760940551758 93.79777526855469 48.94419097900391 94.41454315185547 50.19814682006836 94.97339630126953 C 51.40920257568359 95.51313018798828 52.63294982910156 95.99351501464844 53.86706924438477 96.41405487060547 C 55.10026931762695 96.83428955078125 56.34366607666016 97.19470977783203 57.59494018554688 97.49483489990234 C 58.84511566162109 97.79469299316406 60.10299301147461 98.03430938720703 61.36626815795898 98.21324920654297 C 62.62827301025391 98.39198303222656 63.89551162719727 98.51014709472656 65.16567993164063 98.56726837158203 C 66.43441772460938 98.62431335449219 67.68980407714844 98.61973571777344 68.92966461181641 98.55397033691406 C 70.16802978515625 98.48828125 71.39079284667969 98.36155700683594 72.59580993652344 98.17424774169922 C 73.79927062988281 97.9871826171875 74.98492431640625 97.73968505859375 76.15062713623047 97.43224334716797 C 77.31475067138672 97.12521362304688 78.45889282226563 96.75843811035156 79.58095550537109 96.33234405517578 C 80.74034118652344 95.89208221435547 81.86347961425781 95.39287567138672 82.94863891601563 94.83604431152344 C 84.03212738037109 94.28005981445313 85.07771301269531 93.66664886474609 86.08370971679688 92.99714660644531 C 87.08812713623047 92.32868957519531 88.05302429199219 91.60433197021484 88.97673034667969 90.82538604736328 C 89.89895629882813 90.04767608642578 90.78009796142578 89.215576171875 91.61849212646484 88.33039093017578 M 95.15402221679688 91.86592102050781 C 91.30781555175781 95.95389556884766 86.70309448242188 98.9630126953125 81.66219329833984 100.8945922851563 C 76.58840179443359 102.8387832641602 71.07909393310547 103.6888885498047 65.46912384033203 103.4486618041992 C 59.83123779296875 103.2072372436523 54.10223388671875 101.8650436401367 48.62751388549805 99.43230438232422 C 43.13748931884766 96.99275970458984 37.91683578491211 93.46262359619141 33.31675338745117 88.862548828125 C 28.7166690826416 84.26246643066406 25.18652725219727 79.04180908203125 22.74698448181152 73.55178070068359 C 20.31423950195313 68.07705688476563 18.97205924987793 62.34806060791016 18.73063468933105 56.71017074584961 C 18.49040794372559 51.10019683837891 19.34051895141602 45.59089660644531 21.28470611572266 40.51709365844727 C 23.21628379821777 35.47620391845703 26.22539329528809 30.87146949768066 30.3133716583252 27.02527236938477 C 34.37108612060547 23.20754432678223 39.10955047607422 20.49738121032715 44.19756698608398 18.85580444335938 C 49.25327301025391 17.22465705871582 54.66069412231445 16.64642906188965 60.10041046142578 17.08563423156738 C 65.51420593261719 17.52275276184082 70.96994781494141 18.96842193603516 76.15736389160156 21.39359664916992 C 81.33102416992188 23.81233215332031 86.25009918212891 27.21114158630371 90.609130859375 31.57016944885254 C 94.96815490722656 35.92919921875 98.36695098876953 40.84827041625977 100.7856979370117 46.02192306518555 C 103.2108688354492 51.20934677124023 104.6565475463867 56.66509246826172 105.0936584472656 62.07888031005859 C 105.5328674316406 67.51859283447266 104.9546432495117 72.926025390625 103.323486328125 77.98173522949219 C 101.6819076538086 83.06974792480469 98.97174835205078 87.80820465087891 95.15402221679688 91.86592102050781 Z" stroke="none" fill="#fff"/>
              </g>
            </g>
          </g>
          <path id="Subtraction_11" data-name="Subtraction 11" d="M56.4,39.629c-.72.742-1.5,1.476-2.337,2.189s-1.717,1.41-2.634,2.073-1.869,1.3-2.838,1.888-1.959,1.139-2.949,1.633c-.96.478-1.883.884-2.751,1.214a19.13,19.13,0,0,1-2.43.757,9.584,9.584,0,0,1-2.006.274,3.72,3.72,0,0,1-1.478-.234c-.01-.005-.265-.138-.692-.385s-1.026-.607-1.723-1.066-1.494-1.018-2.315-1.661a27.319,27.319,0,0,1-2.464-2.168A31.276,31.276,0,0,1,27.51,41.57c-.707-.885-1.352-1.767-1.9-2.551s-.992-1.468-1.3-1.96-.489-.791-.5-.8a6.3,6.3,0,0,1-.761-2.652A24.105,24.105,0,0,1,23,29.893c.067-1.332.2-2.719.361-4.041s.337-2.578.49-3.652l.032-.223.031-.217.03-.21.029-.2a18.967,18.967,0,0,0,.159-2.9c-.015-.993-.091-2-.2-2.994s-.257-1.97-.414-2.9-.324-1.819-.476-2.63c-.121-.644-.234-1.243-.328-1.786S22.54,7.1,22.5,6.68a5.621,5.621,0,0,1-.035-1.053.933.933,0,0,1,.207-.59.363.363,0,0,1,.075-.056.35.35,0,0,1,.087-.034.424.424,0,0,1,.1-.012.605.605,0,0,1,.111.01,8.8,8.8,0,0,1,2.023.61,8.482,8.482,0,0,1,1.788,1.069A9.628,9.628,0,0,1,28.4,8.148,12.4,12.4,0,0,1,29.7,10.125,17.161,17.161,0,0,1,30.565,12c.247.633.457,1.267.639,1.88s.334,1.209.465,1.765.243,1.074.341,1.532c.062.287.118.55.171.784s.1.44.152.614a2.858,2.858,0,0,0,.146.419.414.414,0,0,0,.152.2.466.466,0,0,0,.345-.033,3.644,3.644,0,0,0,.563-.284c.219-.13.468-.291.74-.473s.566-.387.877-.6c.622-.431,1.323-.916,2.051-1.375a17.7,17.7,0,0,1,2.212-1.212,5.907,5.907,0,0,1,2.067-.563,2.064,2.064,0,0,1,1.619.568,18.6,18.6,0,0,1,1.4,1.692c.6.784,1.3,1.765,2.074,2.878s1.6,2.356,2.447,3.663,1.7,2.68,2.52,4.049q.678,1.134,1.279,2.195t1.116,2.03q.515.97.938,1.839c.281.578.531,1.12.746,1.62q.387.9.63,1.634a9.209,9.209,0,0,1,.34,1.287,3.21,3.21,0,0,1,.049.936A.989.989,0,0,1,56.4,39.629ZM38.451,53.766h0l-5.735,5.888L14.356,40.168l5.271-5.226c.007.014.19.38.545,1.006s.882,1.512,1.576,2.563,1.555,2.271,2.578,3.561a46.535,46.535,0,0,0,3.55,4c.835.835,1.629,1.58,2.378,2.245s1.452,1.249,2.1,1.761,1.25.951,1.79,1.326,1.023.686,1.442.94c.446.271.845.495,1.193.678s.646.326.89.435.432.185.563.235.2.072.214.076Z" transform="translate(28.868 29.432)" fill="#fff"/>
        </g>
      </g>
    </g>
  </g>
</svg>
