<svg id="Group_10907" data-name="Group 10907" xmlns="http://www.w3.org/2000/svg" width="118.083" height="118.083" viewBox="0 0 118.083 118.083">
  <g id="Group_8073" data-name="Group 8073">
    <g id="Rectangle_1893" data-name="Rectangle 1893" fill="#f33c59">
      <path d="M31.389,31.389A54.627,54.627,0,0,1,45.6,21.1a48.005,48.005,0,0,1,15.554-4.757A38.837,38.837,0,0,1,76.389,17.4,32.042,32.042,0,0,1,89.521,24.68a31.494,31.494,0,0,1,8.311,12.632A37.636,37.636,0,0,1,99.8,52.856a47.116,47.116,0,0,1-4.448,16.465A55.386,55.386,0,0,1,69.321,95.349,47.116,47.116,0,0,1,52.856,99.8a37.636,37.636,0,0,1-15.544-1.965A31.494,31.494,0,0,1,24.68,89.521,32.042,32.042,0,0,1,17.4,76.389a38.837,38.837,0,0,1-1.054-15.237A48.005,48.005,0,0,1,21.1,45.6,54.628,54.628,0,0,1,31.389,31.389Z" stroke="none"/>
      <path d="M 81.47538757324219 81.47550964355469 C 82.48005676269531 80.47085571289063 83.43552398681641 79.43244171142578 84.34026336669922 78.36244964599609 C 85.24481964111328 77.29267120361328 86.09848022460938 76.19152069091797 86.89972686767578 75.06114959716797 C 87.70066833496094 73.93121337890625 88.44910430908203 72.77232360839844 89.14353942871094 71.58662414550781 C 89.83755493164063 70.401611328125 90.47753143310547 69.1900634765625 91.06201171875 67.95414733886719 C 91.62640380859375 66.76069641113281 92.13344573974609 65.55719757080078 92.58255767822266 64.34597015380859 C 93.03127288818359 63.1358528137207 93.42208099365234 61.91819763183594 93.75444030761719 60.6953010559082 C 94.08647155761719 59.47372436523438 94.36013031005859 58.24711608886719 94.57491302490234 57.01774215698242 C 94.78943634033203 55.78988265991211 94.94521331787109 54.55945205688477 95.04173278808594 53.32872772216797 C 95.13812255859375 52.09969711303711 95.17420196533203 50.88615798950195 95.15034484863281 49.69020843505859 C 95.12650299072266 48.49602890014648 95.04293060302734 47.31951141357422 94.89998626708984 46.16274261474609 C 94.75726318359375 45.00778961181641 94.55538177490234 43.87263488769531 94.29473114013672 42.75932693481445 C 94.03452301025391 41.64787673950195 93.71578979492188 40.55830383300781 93.33894348144531 39.49261856079102 C 92.94967651367188 38.39184188842773 92.50222015380859 37.32860946655273 91.99784851074219 36.30453872680664 C 91.49443817138672 35.28238677978516 90.93431854248047 34.29928207397461 90.31878662109375 33.3568000793457 C 89.70442962646484 32.41613006591797 89.03488922119141 31.51596069335938 88.31138610839844 30.6578483581543 C 87.58930206298828 29.80140686035156 86.81350708007813 28.98688888549805 85.98526000976563 28.21581649780273 C 85.15863037109375 27.44626617431641 84.29230499267578 26.73167419433594 83.38807678222656 26.07281494140625 C 82.48558807373047 25.41523742675781 81.54531860351563 24.81315231323242 80.56904602050781 24.2673454284668 C 79.5946044921875 23.72256660461426 78.58426666259766 23.23382377624512 77.53976440429688 22.80188941955566 C 76.4971923828125 22.37075614929199 75.42053985595703 21.99619674682617 74.31154632568359 21.67899703979492 C 73.24170684814453 21.37299346923828 72.15293884277344 21.1231803894043 71.04721069335938 20.92953681945801 C 69.94329833984375 20.7362117767334 68.82235717773438 20.59885025024414 67.68634796142578 20.51746940612793 C 66.55208587646484 20.43621444702148 65.40269470214844 20.41074562072754 64.24008941650391 20.44108390808105 C 63.07913970947266 20.47138214111328 61.90489959716797 20.55732727050781 60.71927642822266 20.69895935058594 C 59.53521728515625 20.84041213989258 58.35470199584961 21.03562355041504 57.17965316772461 21.28389167785645 C 56.00597381591797 21.5318775177002 54.83758163452148 21.83282470703125 53.67634963989258 22.18608093261719 C 52.51630401611328 22.53896903991699 51.36323928833008 22.94411087036133 50.21903991699219 23.40085220336914 C 49.07583618164063 23.85718536376953 47.94131088256836 24.36510467529297 46.81734085083008 24.92398452758789 C 45.65512466430664 25.50188827514648 44.51655197143555 26.12850761413574 43.40331268310547 26.80253982543945 C 42.29069519042969 27.47618675231934 41.20317459106445 28.19733047485352 40.14242935180664 28.96468162536621 C 39.08207702636719 29.73174095153809 38.04830169677734 30.54511642456055 37.04278182983398 31.403564453125 C 36.03745269775391 32.2618522644043 35.0601806640625 33.16535568237305 34.11268615722656 34.11284637451172 C 33.16519165039063 35.06034469604492 32.26169204711914 36.0376091003418 31.40340423583984 37.04294204711914 C 30.54495620727539 38.0484619140625 29.73158073425293 39.08223724365234 28.96451950073242 40.1425895690918 C 28.19717216491699 41.20333480834961 27.47603034973145 42.29085540771484 26.80238151550293 43.40347671508789 C 26.12834930419922 44.5167121887207 25.50172805786133 45.65528106689453 24.92382621765137 46.8175048828125 C 24.36494445800781 47.94147491455078 23.85702514648438 49.07600021362305 23.40068817138672 50.21920013427734 C 22.94395065307617 51.36339569091797 22.53881645202637 52.51646041870117 22.1859245300293 53.67650604248047 C 21.83267211914063 54.83773422241211 21.5317211151123 56.00613021850586 21.28374290466309 57.17980194091797 C 21.03547096252441 58.35485458374023 20.84025955200195 59.53536605834961 20.69880485534668 60.71942901611328 C 20.55716896057129 61.90505599975586 20.47122192382813 63.07929611206055 20.44092750549316 64.24024200439453 C 20.41058731079102 65.40285491943359 20.43605613708496 66.55224609375 20.51731491088867 67.68650054931641 C 20.59869956970215 68.822509765625 20.73605918884277 69.94345092773438 20.92938232421875 71.04737091064453 C 21.12302780151367 72.15309906005859 21.37284088134766 73.24186706542969 21.67884063720703 74.31169891357422 C 21.99604415893555 75.42070007324219 22.37060165405273 76.49734497070313 22.80173873901367 77.53990936279297 C 23.23367118835449 78.58441925048828 23.72241592407227 79.59475708007813 24.26719665527344 80.56919097900391 C 24.81300735473633 81.54546356201172 25.41509056091309 82.48573303222656 26.07267189025879 83.38822174072266 C 26.73152732849121 84.29245758056641 27.44612121582031 85.15878295898438 28.21567153930664 85.98539733886719 C 28.98674201965332 86.81365966796875 29.80126571655273 87.58944702148438 30.6577033996582 88.3115234375 C 31.51582145690918 89.03502655029297 32.41598510742188 89.70456695556641 33.35665512084961 90.31892395019531 C 34.29914093017578 90.93447113037109 35.28224563598633 91.49458312988281 36.30439758300781 91.99800109863281 C 37.32846832275391 92.50235748291016 38.39169692993164 92.9498291015625 39.49247360229492 93.33908843994141 C 40.55815505981445 93.71593475341797 41.64773178100586 94.03466033935547 42.75918960571289 94.29486846923828 C 43.87250518798828 94.55551147460938 45.00765228271484 94.75740051269531 46.16260147094727 94.90012359619141 C 47.31937408447266 95.04306793212891 48.49588394165039 95.12664794921875 49.6900749206543 95.15047454833984 C 50.88601684570313 95.17433929443359 52.09956359863281 95.13826751708984 53.32859802246094 95.04186248779297 C 54.55932998657227 94.94533538818359 55.78974914550781 94.78956604003906 57.01761245727539 94.57504272460938 C 58.24699020385742 94.36026000976563 59.47359848022461 94.08659362792969 60.69517135620117 93.75457763671875 C 61.91806793212891 93.42221069335938 63.13572311401367 93.03140258789063 64.34583282470703 92.58269500732422 C 65.55706024169922 92.13357543945313 66.76055908203125 91.62654113769531 67.95401763916016 91.06214904785156 C 69.18994140625 90.47766876220703 70.40148162841797 89.83769226074219 71.58649444580078 89.14366912841797 C 72.77219390869141 88.44922637939453 73.93109130859375 87.7008056640625 75.06101226806641 86.89986419677734 C 76.19138336181641 86.09860992431641 77.29254150390625 85.24495697021484 78.36231994628906 84.34038543701172 C 79.43231201171875 83.43565368652344 80.47071838378906 82.48018646240234 81.47538757324219 81.47550964355469 M 84.56031799316406 84.56044006347656 C 79.93185424804688 89.18890380859375 74.73731994628906 92.79594421386719 69.32135772705078 95.34873199462891 C 63.92394256591797 97.89279937744141 58.32305908203125 99.38204193115234 52.85593032836914 99.79643249511719 C 47.42198944091797 100.2082901000977 42.13256454467773 99.55735778808594 37.31193161010742 97.83161163330078 C 32.52956008911133 96.11954498291016 28.2158203125 93.35225677490234 24.68013763427734 89.52093505859375 C 21.17640495300293 85.72423553466797 18.76707077026367 81.23981475830078 17.39863967895508 76.38913726806641 C 16.04079627990723 71.57598114013672 15.70563697814941 66.39452362060547 16.34442329406738 61.15231704711914 C 16.97950553894043 55.94049835205078 18.57869720458984 50.65692901611328 21.10121917724609 45.59829330444336 C 23.6156063079834 40.55596542358398 27.05465888977051 35.72251510620117 31.38850593566895 31.38866996765137 C 35.72235488891602 27.05481910705566 40.55580520629883 23.61576843261719 45.5981330871582 21.10137939453125 C 50.65677261352539 18.57885551452637 55.94033813476563 16.97966766357422 61.15216064453125 16.34457969665527 C 66.39436340332031 15.70579051971436 71.57582855224609 16.04094696044922 76.38899230957031 17.39878845214844 C 81.23967742919922 18.7672176361084 85.72409057617188 21.17655181884766 89.52079010009766 24.68028259277344 C 93.35211181640625 28.21596527099609 96.11940765380859 32.52969741821289 97.83147430419922 37.31206893920898 C 99.55722808837891 42.1327018737793 100.2081604003906 47.42212295532227 99.79630279541016 52.85606384277344 C 99.38191223144531 58.32319259643555 97.89266967773438 63.924072265625 95.34860992431641 69.32147979736328 C 92.79581451416016 74.73744201660156 89.18877410888672 79.93198394775391 84.56031799316406 84.56044006347656 Z" stroke="none" fill="#fff"/>
    </g>
    <path id="Subtraction_14" data-name="Subtraction 14" d="M6.16,23.635c.806-.806,1.671-1.613,2.576-2.407s1.853-1.577,2.826-2.333,1.97-1.489,2.977-2.183,2.022-1.35,3.03-1.956c.976-.586,1.9-1.1,2.77-1.534a24.724,24.724,0,0,1,2.394-1.061,10.931,10.931,0,0,1,1.92-.552A3.223,3.223,0,0,1,26,11.6c.009,0,.227.088.59.252s.871.407,1.456.727a20.8,20.8,0,0,1,1.926,1.191,15.749,15.749,0,0,1,2,1.642,18.043,18.043,0,0,1,1.772,2.057c.54.722,1.022,1.451,1.426,2.1s.729,1.231.954,1.647.351.672.356.682a4.816,4.816,0,0,1,.344,2.393,23.906,23.906,0,0,1-.479,3.523c-.255,1.283-.586,2.633-.929,3.929s-.7,2.538-1,3.6l-.064.222-.062.216L34.23,36l-.057.2a20.754,20.754,0,0,0-.582,2.851c-.132.968-.208,1.944-.249,2.9s-.044,1.9-.031,2.8.043,1.75.071,2.531c.022.621.042,1.2.052,1.726s.01,1-.009,1.415a5.932,5.932,0,0,1-.124,1.047,1.294,1.294,0,0,1-.291.623.553.553,0,0,1-.082.068.472.472,0,0,1-.188.075.565.565,0,0,1-.107.007,5.886,5.886,0,0,1-3.7-1.269,7.034,7.034,0,0,1-2.012-2.892,14.955,14.955,0,0,1-.871-3.495c-.16-1.153-.219-2.239-.265-3.094-.015-.272-.028-.521-.043-.742s-.031-.415-.051-.577a2.177,2.177,0,0,0-.076-.387c-.031-.094-.069-.153-.116-.171a.5.5,0,0,0-.338.084,5.2,5.2,0,0,0-.588.363c-.232.16-.5.356-.789.576s-.608.465-.942.723c-.669.517-1.423,1.1-2.2,1.662a25.909,25.909,0,0,1-2.335,1.53,7.5,7.5,0,0,1-2.092.872,1.523,1.523,0,0,1-1.472-.312,11.1,11.1,0,0,1-1.072-1.449c-.444-.678-.961-1.531-1.516-2.5s-1.143-2.052-1.732-3.193S9.252,35.638,8.7,34.443q-.454-.988-.846-1.915t-.715-1.775c-.216-.565-.408-1.1-.576-1.612s-.312-.985-.429-1.428a14.732,14.732,0,0,1-.317-1.454,7.207,7.207,0,0,1-.1-1.165,3.11,3.11,0,0,1,.114-.875A1.369,1.369,0,0,1,6.16,23.635Zm19.12-15.8,0,0,6.2-6.2L45.98,16.806l-5.71,5.71c0-.012-.128-.331-.379-.869s-.627-1.293-1.138-2.178a30.4,30.4,0,0,0-1.936-2.947,26.822,26.822,0,0,0-2.769-3.179c-.664-.648-1.3-1.218-1.908-1.72s-1.179-.935-1.713-1.309-1.029-.688-1.48-.952-.855-.476-1.208-.648c-.375-.182-.714-.327-1.011-.443s-.554-.2-.765-.266-.376-.105-.491-.131-.179-.036-.189-.038Z" transform="translate(30.457 31.153)" fill="#fff"/>
  </g>
</svg>
