<svg id="spotify-sketch_1_" data-name="spotify-sketch (1)" xmlns="http://www.w3.org/2000/svg" width="40" height="40" viewBox="0 0 40 40">
  <path id="Path_6363" data-name="Path 6363" d="M20,0A20,20,0,1,1,0,20,20,20,0,0,1,20,0Z" fill="#1dd860"/>
  <g id="Group_9593" data-name="Group 9593" transform="translate(6.177 10.438)">
    <path id="Path_6356" data-name="Path 6356" d="M24.779,19.881v0a1.545,1.545,0,0,1-.863-.29c-5.032-3.033-10.887-3.16-16.67-1.975a5.148,5.148,0,0,1-.96.21,1.256,1.256,0,0,1-1.275-1.275,1.277,1.277,0,0,1,1.1-1.355c6.605-1.458,13.355-1.33,19.112,2.113A1.365,1.365,0,0,1,26,18.641,1.22,1.22,0,0,1,24.779,19.881Z" transform="translate(-2.836 -0.893)" fill="#fff"/>
    <path id="Path_6357" data-name="Path 6357" d="M27.279,17.215h0a2,2,0,0,1-.993-.338A26.134,26.134,0,0,0,7.042,14.5a3.313,3.313,0,0,1-.96.21,1.564,1.564,0,0,1-1.563-1.563,1.587,1.587,0,0,1,1.25-1.668,27.082,27.082,0,0,1,7.887-1.1,28.231,28.231,0,0,1,14.275,3.67,1.682,1.682,0,0,1,.912,1.588,1.563,1.563,0,0,1-1.563,1.572Z" transform="translate(-3.164 -3.515)" fill="#fff"/>
    <path id="Path_6358" data-name="Path 6358" d="M5.109,7.488a33.766,33.766,0,0,1,9.477-1.225c5.887,0,12.057,1.225,16.565,3.855a1.892,1.892,0,0,1,1.04,1.822,1.868,1.868,0,0,1-1.87,1.878l0,0a1.856,1.856,0,0,1-1.042-.315c-5.74-3.427-16.008-4.248-22.652-2.393a3.882,3.882,0,0,1-1.042.208,1.861,1.861,0,0,1-1.878-1.9,1.905,1.905,0,0,1,1.4-1.925Z" transform="translate(-3.706 -6.263)" fill="#fff"/>
  </g>
</svg>
