<svg xmlns="http://www.w3.org/2000/svg" width="40" height="40" viewBox="0 0 40 40">
  <g id="twitter_3_" data-name="twitter (3)" transform="translate(-0.001)">
    <circle id="Ellipse_436" data-name="Ellipse 436" cx="20" cy="20" r="20" transform="translate(0.001 0)" fill="#55acee"/>
    <g id="Group_9594" data-name="Group 9594" transform="translate(8.95 12.132)">
      <path id="Path_6359" data-name="Path 6359" d="M48.4,36.27a9.538,9.538,0,0,1-2.746.752,4.794,4.794,0,0,0,2.1-2.644,9.57,9.57,0,0,1-3.036,1.16A4.785,4.785,0,0,0,36.579,39.9a13.57,13.57,0,0,1-9.854-5A4.786,4.786,0,0,0,28.2,41.285a4.747,4.747,0,0,1-2.165-.6c0,.02,0,.041,0,.061a4.783,4.783,0,0,0,3.835,4.687,4.8,4.8,0,0,1-2.159.083,4.786,4.786,0,0,0,4.466,3.32A9.65,9.65,0,0,1,25.1,50.816,13.6,13.6,0,0,0,46.032,39.362c0-.207,0-.414-.014-.618A9.694,9.694,0,0,0,48.4,36.27Z" transform="translate(-25.103 -34.028)" fill="#f1f2f2"/>
    </g>
  </g>
</svg>
