<svg xmlns="http://www.w3.org/2000/svg" width="64" height="64" viewBox="0 0 64 64">
  <g id="Group_9247" data-name="Group 9247" transform="translate(-5717 303)">
    <rect id="Rectangle_13" data-name="Rectangle 13" width="46" height="38" rx="19" transform="translate(5726 -289)" fill="#fff"/>
    <g id="Icons" transform="translate(5717 -303)">
      <g id="Social-Media-Collection" transform="translate(-341 -190)">
        <g id="Youtube" transform="translate(341 190)">
          <g id="Fill-314">
            <path id="Fill-207" d="M48,33.208a48.415,48.415,0,0,1-.32,5.18,6.919,6.919,0,0,1-1.272,3.176A4.571,4.571,0,0,1,43.2,42.918c-4.478.324-11.2.334-11.2.334s-8.32-.076-10.88-.32a5.429,5.429,0,0,1-3.528-1.368,6.919,6.919,0,0,1-1.272-3.176,48.415,48.415,0,0,1-.32-5.18V30.78a48.353,48.353,0,0,1,.32-5.178,6.923,6.923,0,0,1,1.272-3.178A4.571,4.571,0,0,1,20.8,21.07c4.478-.324,11.2-.324,11.2-.324h.012s6.718,0,11.2.324a4.571,4.571,0,0,1,3.206,1.354A6.923,6.923,0,0,1,47.68,25.6,48.353,48.353,0,0,1,48,30.78ZM32,0A32,32,0,1,0,64,32,32,32,0,0,0,32,0Z" fill="#ea412c" fill-rule="evenodd"/>
          </g>
          <path id="Fill-208" d="M28.7,36.15l8.646-4.48-8.648-4.512Z" fill="#ea412c" fill-rule="evenodd"/>
        </g>
      </g>
    </g>
  </g>
</svg>
