<svg 
 xmlns="http://www.w3.org/2000/svg"
 xmlns:xlink="http://www.w3.org/1999/xlink"
 width="74px" height="89px">
<path fill-rule="evenodd"  fill="rgb(66, 166, 78)"
 d="M43.532,38.392 L73.138,20.940 L39.178,-0.003 L-0.006,23.558 L-0.006,28.794 L26.117,43.628 L26.117,74.170 L7.831,63.698 L7.831,43.628 L-0.006,39.265 L-0.006,69.807 L33.954,89.004 L34.824,38.392 L13.055,26.176 L39.178,10.469 L56.594,20.940 L43.532,27.921 L43.532,38.392 Z"/>
<path fill-rule="evenodd"  fill="rgb(77, 76, 77)"
 d="M37.437,89.004 L37.437,42.756 L58.335,42.756 L74.009,23.558 L74.009,68.934 L68.784,66.316 L68.784,41.010 L59.206,51.482 L45.274,51.482 L45.274,83.769 L37.437,89.004 Z"/>
<path fill-rule="evenodd"  fill="rgb(32, 120, 43)"
 d="M33.954,39.265 L26.117,45.373 L26.117,69.807 L29.600,51.482 L33.954,39.265 Z"/>
<path fill-rule="evenodd"  fill="rgb(32, 120, 43)"
 d="M7.831,43.628 L-0.006,40.138 L-0.006,69.807 L2.606,49.736 L7.831,43.628 Z"/>
<path fill-rule="evenodd"  fill="rgb(58, 185, 73)"
 d="M8.702,74.170 L7.831,63.698 L-0.006,69.807 L8.702,74.170 Z"/>
<path fill-rule="evenodd"  fill="rgb(32, 120, 43)"
 d="M7.831,63.698 L-0.006,69.807 L-0.006,61.953 L7.831,63.698 Z"/>
<path fill-rule="evenodd"  fill="rgb(61, 193, 77)"
 d="M34.824,39.265 L33.954,88.132 L26.117,74.170 L34.824,39.265 Z"/>
<path fill-rule="evenodd"  fill="rgb(61, 193, 77)"
 d="M33.954,38.392 L26.117,34.029 L26.117,43.628 L26.117,45.373 L33.954,38.392 Z"/>
<path fill-rule="evenodd"  fill="rgb(32, 120, 43)"
 d="M51.369,31.411 L43.532,27.048 L43.532,36.647 L43.532,38.392 L51.369,31.411 Z"/>
<path fill-rule="evenodd"  fill="rgb(61, 193, 77)"
 d="M48.757,25.303 L44.403,27.921 L50.498,31.411 L48.757,25.303 Z"/>
<path fill-rule="evenodd"  fill="rgb(61, 193, 77)"
 d="M39.178,-0.003 L39.178,10.469 L44.403,3.488 L39.178,-0.003 Z"/>
<path fill-rule="evenodd"  fill="rgb(61, 193, 77)"
 d="M56.594,20.940 L72.267,20.940 L59.206,28.794 L56.594,20.940 Z"/>
<path fill-rule="evenodd"  fill="rgb(32, 120, 43)"
 d="M60.077,13.087 L56.594,20.940 L72.267,20.940 L60.077,13.087 Z"/>
<path fill-rule="evenodd"  fill="rgb(32, 120, 43)"
 d="M39.178,-0.003 L34.824,2.615 L39.178,9.596 L39.178,-0.003 Z"/>
<path fill-rule="evenodd"  fill="rgb(61, 193, 77)"
 d="M20.021,11.341 L13.055,26.176 L20.892,31.411 L-0.006,28.794 L-0.006,23.558 L20.021,11.341 Z"/>
<path fill-rule="evenodd"  fill="rgb(32, 120, 43)"
 d="M13.055,26.176 L21.763,31.411 L-0.006,28.794 L13.055,26.176 Z"/>
<path fill-rule="evenodd"  fill="rgb(103, 103, 103)"
 d="M37.437,42.756 L45.274,51.482 L59.206,51.482 L59.206,42.756 L37.437,42.756 Z"/>
</svg>